<svg width="57" height="57" viewBox="0 0 57 57" fill="none" xmlns="http://www.w3.org/2000/svg">
<path fill-rule="evenodd" clip-rule="evenodd" d="M36.3344 7.9325C36.1443 7.9325 35.9306 7.90875 35.7406 7.8375C33.4135 7.0207 30.9631 6.61096 28.4968 6.62625C25.9556 6.62625 23.5331 7.05375 21.2531 7.8375C20.3031 8.14625 19.3056 7.67125 18.9731 6.745C18.6406 5.81875 19.1394 4.7975 20.0656 4.465C22.7256 3.53875 25.5518 3.06375 28.4968 3.06375C31.4418 3.06375 34.2918 3.53875 36.9281 4.465C37.1857 4.46791 37.4397 4.52669 37.6724 4.63727C37.9052 4.74785 38.1111 4.90761 38.2761 5.10552C38.4411 5.30343 38.5612 5.53477 38.6281 5.7836C38.695 6.03242 38.7071 6.2928 38.6637 6.54677C38.6202 6.80074 38.5221 7.04225 38.3762 7.25464C38.2303 7.46702 38.0401 7.64523 37.8187 7.77697C37.5972 7.90871 37.3498 7.99084 37.0936 8.01769C36.8373 8.04454 36.5783 8.01548 36.3344 7.9325ZM11.7087 47.0749C11.2575 47.0749 10.8062 46.9086 10.45 46.5524C0.498745 36.6011 0.498745 20.4036 10.45 10.4524C11.1387 9.76363 12.2787 9.76363 12.9675 10.4524C13.6562 11.1411 13.6562 12.2811 12.9675 12.9699C4.39374 21.5436 4.39374 35.4849 12.9675 44.0349C13.6562 44.7236 13.6562 45.8636 12.9675 46.5524C12.6112 46.9086 12.16 47.0749 11.7087 47.0749ZM45.2963 47.0749C44.845 47.0749 44.3938 46.9086 44.0375 46.5524C43.7063 46.2172 43.5205 45.7649 43.5205 45.2936C43.5205 44.8224 43.7063 44.3701 44.0375 44.0349C52.6113 35.4611 52.6113 21.5199 44.0375 12.9699C43.7063 12.6347 43.5205 12.1824 43.5205 11.7111C43.5205 11.2399 43.7063 10.7876 44.0375 10.4524C44.7263 9.76363 45.8663 9.76363 46.555 10.4524C56.5063 20.4036 56.5063 36.6011 46.555 46.5524C46.1988 46.9086 45.7475 47.0749 45.2963 47.0749ZM20.0667 52.5161C22.7029 53.4423 25.5292 53.9173 28.4979 53.9411C31.4667 53.9411 34.2929 53.4423 36.9529 52.5161C37.8792 52.1836 38.3779 51.1623 38.0454 50.2361C37.7129 49.3098 36.6917 48.8348 35.7654 49.1436C33.5092 49.9273 31.0629 50.3548 28.5217 50.3548C25.9567 50.3548 23.5342 49.9273 21.2542 49.1436C20.3042 48.8111 19.3067 49.3098 18.9742 50.2361C18.8175 50.6833 18.8446 51.1744 19.0493 51.6018C19.2541 52.0291 19.6199 52.3579 20.0667 52.5161ZM20.7522 24.5338V28.5V32.5138C20.7522 37.4538 24.2434 39.4725 28.5184 37.0025L31.9622 35.0075L35.4059 33.0125C39.6809 30.5425 39.6809 26.505 35.4059 24.035L31.9622 22.04L28.5184 20.045C24.2434 17.575 20.7522 19.5938 20.7522 24.5338Z" fill="#236E57"/>
</svg>
